FILE "DesertBus.bin" BINARY
  TRACK 01 MODE1/2352
    INDEX 01 00:00:00
  TRACK 02 AUDIO
    PREGAP 00:03:00
    INDEX 01 35:48:19
  TRACK 03 AUDIO
    INDEX 01 36:37:01
  TRACK 04 AUDIO
    INDEX 01 37:25:70
  TRACK 05 AUDIO
    INDEX 01 38:15:50
  TRACK 06 AUDIO
    INDEX 01 39:06:13
  TRACK 07 AUDIO
    INDEX 01 39:55:09
  TRACK 08 AUDIO
    INDEX 01 40:45:22
  TRACK 09 AUDIO
    INDEX 01 41:36:41
  TRACK 10 AUDIO
    INDEX 01 54:22:18
  TRACK 11 AUDIO
    INDEX 01 55:32:27
